<?xml version="1.0" encoding="UTF-8" standalone="no"?>
<!-- Created with Inkscape (http://www.inkscape.org/) -->

<svg
   width="86.844643mm"
   height="24.510141mm"
   viewBox="0 0 86.844643 24.510141"
   version="1.1"
   id="svg1"
   xml:space="preserve"
   xmlns="http://www.w3.org/2000/svg"
   xmlns:svg="http://www.w3.org/2000/svg"><defs
     id="defs1" /><g
     id="g1"
     transform="matrix(0.26458333,0,0,0.26458334,183.78577,-59.985395)"><path
       id="path24"
       d="m -644.40995,285.93512 -8.35467,19.01067 -13.228,-49.57867 49.57733,13.22933 -19.40133,8.34934 24.85466,23.08266 c 5.52134,-7.61466 8.78134,-16.968 8.78134,-27.088 0,-25.52666 -20.69867,-46.22399 -46.224,-46.22399 -25.52667,0 -46.21867,20.69733 -46.21867,46.22399 0,25.52667 20.692,46.21867 46.21867,46.21867 10.11467,0 19.45866,-3.25467 27.07333,-8.76 l -23.07866,-24.464"
       style="fill:#1d1826;fill-opacity:1;fill-rule:nonzero;stroke:none;stroke-width:1.33333" /><g
       id="g3"
       transform="translate(40.094541,611.65145)"><g
         id="OBJECTS"
         style="display:inline">
	
	
	
	
	
	
<rect
   style="display:inline;fill:#1d1826;fill-opacity:1;stroke-width:1.00839"
   id="rect3"
   width="224.1971"
   height="37.59827"
   x="-630.68323"
   y="-329.89651"
   transform="translate(-1.2822738e-6)" /><text
   xml:space="preserve"
   style="font-style:normal;font-variant:normal;font-weight:bold;font-stretch:normal;font-size:65.7835px;font-family:Montserrat;-inkscape-font-specification:'Montserrat Bold';text-align:start;letter-spacing:-6.85245px;writing-mode:lr-tb;direction:ltr;text-anchor:start;fill:#1d1826;fill-opacity:1;stroke-width:0.685245"
   x="-632.54248"
   y="-337.7193"
   id="text3"><tspan
     id="tspan3"
     x="-632.54248"
     y="-337.7193"
     style="stroke-width:0.685245">ONLINE</tspan></text><text
   xml:space="preserve"
   style="font-style:normal;font-variant:normal;font-weight:bold;font-stretch:normal;font-size:27.4668px;font-family:Montserrat;-inkscape-font-specification:'Montserrat Bold';text-align:start;letter-spacing:-2.86113px;writing-mode:lr-tb;direction:ltr;text-anchor:start;fill:#ef3038;fill-opacity:1;stroke-width:0.286113"
   x="-583.45209"
   y="-296.48083"
   id="text3-1"
   transform="scale(0.98430826,1.0159419)"><tspan
     id="tspan3-6"
     x="-583.45209"
     y="-296.48083"
     style="fill:#ef3038;fill-opacity:1;stroke-width:0.286113"><tspan
   style="fill:#ffffff"
   id="tspan6">MICRO</tspan> NEWS</tspan></text></g></g></g></svg>
